<svg xmlns="http://www.w3.org/2000/svg" viewBox="0 0 247.05 37.55"><defs><style>.cls-1{fill:#fff;stroke:#fff;stroke-miterlimit:10;}</style></defs><title>Asset 17</title><g id="Layer_2" data-name="Layer 2"><g id="Layer_1-2" data-name="Layer 1"><path class="cls-1" d="M9.24.91V30.05H20.69V36.8H.5V.91Z"/><path class="cls-1" d="M24.89.91h8.74V36.8H24.89Z"/><path class="cls-1" d="M73.45,12.26H63.79c-1.33-2.4-3.78-3.68-7-3.68-5.63,0-9.36,4-9.36,10.22,0,6.65,3.78,10.53,10.07,10.53A8.59,8.59,0,0,0,66.14,23H55.05V16.55h19v8.13A17.58,17.58,0,0,1,56.79,37.05c-10.74,0-18.31-7.51-18.31-18.25S46,.5,56.74.5C65.32.5,71.56,4.9,73.45,12.26Z"/><path class="cls-1" d="M101.27,30.46H87.87L85.72,36.8H76.57L89.56.91H99.68l13,35.89h-9.26Zm-6.7-19.89-4.4,13.14H99Z"/><path class="cls-1" d="M140.41,21V36.8h-8.74V.91h8.74V16.65l12-15.74h10.28L148.74,18.5l14.42,18.3H152.47Z"/><path class="cls-1" d="M167.3.91H176V36.8H167.3Z"/><path class="cls-1" d="M180.44.91H208.2v7h-9.51V36.8H190V7.91h-9.51Z"/><path class="cls-1" d="M234.94,30.46h-13.4l-2.15,6.34h-9.15l13-35.89h10.12l13,35.89h-9.26Zm-6.7-19.89-4.4,13.14h8.85Z"/></g></g></svg>